<svg width="290" height="235" viewBox="0 0 290 235" fill="none" xmlns="http://www.w3.org/2000/svg">
<path d="M190.269 6.14215L192.481 84.0769C192.867 97.6591 201.999 109.43 215.059 113.179L289.998 134.693L212.063 136.905C198.481 137.291 186.71 146.423 182.961 159.483L161.447 234.422L159.235 156.487C158.849 142.905 149.717 131.134 136.657 127.385L61.7181 105.871L139.653 103.659C153.235 103.273 165.006 94.1414 168.755 81.0813L190.269 6.14215Z" fill="white"/>
<path d="M83.3253 122.76C80.8977 126.329 78.3091 130.156 75.5431 134.272C44.7896 180.045 33.6518 217.582 81.0372 231.958C-18.7543 225.89 -14.0758 203.989 29.34 151.036C36.2393 142.621 47.5526 129.916 61.8107 114.675L83.3253 122.76ZM128.115 47.207C129.178 49.1561 131.095 50.6245 134 51.5C122.802 68.1276 116.714 75.2536 102.531 95.1221L79.2081 96.3516C93.9204 81.0678 110.584 64.255 128.115 47.207Z" fill="white"/>
<path d="M157.102 24.529L143.209 43.6759C140.787 47.0128 140.866 51.5833 143.402 54.9761L157.956 74.4443L138.264 60.105C134.833 57.606 130.228 57.5541 126.881 59.9765L107.672 73.8765L121.566 54.7295C123.987 51.3927 123.909 46.8222 121.372 43.4293L106.818 23.9611L126.51 38.3004C129.942 40.7994 134.546 40.8514 137.894 38.4289L157.102 24.529Z" fill="white"/>
</svg>
