<svg width="258" height="232" viewBox="0 0 258 232" fill="none" xmlns="http://www.w3.org/2000/svg">
<path d="M158.124 0L160.336 77.9347C160.722 91.5169 169.853 103.288 182.914 107.037L257.853 128.551L179.918 130.763C166.336 131.149 154.565 140.281 150.816 153.341L129.302 228.28L127.089 150.345C126.704 136.763 117.572 124.992 104.512 121.243L29.5728 99.7291L107.507 97.5166C121.09 97.131 132.86 87.9993 136.61 74.9392L158.124 0Z" fill="white"/>
<path d="M78.5868 179.559L56.4645 187.94C52.6091 189.401 50.1661 193.265 50.4246 197.493L51.9073 221.755L43.315 198.961C41.8176 194.988 37.9971 192.418 33.8692 192.606L10.1832 193.684L32.3056 185.303C36.161 183.842 38.6039 179.979 38.3455 175.75L36.8627 151.488L45.455 174.282C46.9524 178.255 50.7729 180.825 54.9008 180.637L78.5868 179.559Z" fill="white"/>
<path d="M186.736 79.7198C181.209 86.6549 175.351 93.6415 169.19 100.614C112.084 165.249 50.6921 204.307 32.0673 187.852C31.873 187.68 31.6872 187.5 31.5038 187.317C64.8725 181.087 114.26 151.255 161.009 106.379C170.183 97.5721 178.782 88.6387 186.736 79.7198Z" fill="white"/>
</svg>
