<svg width="289" height="286" viewBox="0 0 289 286" fill="none" xmlns="http://www.w3.org/2000/svg">
<path d="M188.915 57.5704L191.128 135.505C191.513 149.087 200.645 160.858 213.705 164.607L288.644 186.121L210.709 188.334C197.127 188.719 185.356 197.851 181.607 210.911L160.093 285.85L157.881 207.916C157.495 194.333 148.364 182.563 135.303 178.813L60.3643 157.299L138.299 155.087C151.881 154.701 163.652 145.57 167.401 132.51L188.915 57.5704Z" fill="white"/>
<path d="M68.9531 169.296C66.745 171.308 64.5383 173.351 62.335 175.423C37.3803 198.888 16.1518 222.996 0 245.362C3.50738 234.092 13.6277 219.976 27.9854 202.464C34.8846 194.049 46.1975 181.343 60.4551 166.102L68.9531 169.296ZM180.85 48.1015C215.413 12.6179 244.511 -6.35797 255.925 1.92863C268.092 10.763 257.025 48.2974 230.526 96.4238C230.441 96.2974 230.352 96.1736 230.264 96.0497C249.832 56.1354 256.62 25.9682 245.459 17.8642C236.193 11.1369 216.3 20.8804 191.562 42.0995C159.723 76.6681 134.11 106.032 112.207 133.755C106.573 137.887 100.875 142.263 95.1396 146.867L77.8535 147.779C107.271 117.219 144.492 80.5446 180.85 48.1015Z" fill="white"/>
<path d="M252.638 39.6479L247.883 62.8218C247.054 66.8605 249.012 70.9915 252.722 73.0354L274.013 84.7634L250.159 79.8273C246.001 78.967 241.786 80.8195 239.736 84.4075L227.974 104.995L232.73 81.8212C233.558 77.7825 231.601 73.6515 227.891 71.6076L206.6 59.8796L230.454 64.8157C234.611 65.676 238.827 63.8235 240.877 60.2355L252.638 39.6479Z" fill="white"/>
</svg>
