<svg width="290" height="229" viewBox="0 0 290 229" fill="none" xmlns="http://www.w3.org/2000/svg">
<path d="M190.269 0L192.481 77.9347C192.867 91.5169 201.999 103.288 215.059 107.037L289.998 128.551L212.063 130.763C198.481 131.149 186.71 140.281 182.961 153.341L161.447 228.28L159.234 150.345C158.849 136.763 149.717 124.992 136.657 121.243L61.7179 99.7291L139.653 97.5166C153.235 97.131 165.006 87.9993 168.755 74.9392L190.269 0Z" fill="white"/>
<path d="M35.9401 137.088C31.8971 145.333 28.5971 154.413 27.0007 163.858C23.0125 187.455 73.6344 221.89 125.288 227.412C-19.3171 224.908 -19.7074 204.716 29.3405 144.894C31.222 142.599 33.432 139.986 35.9401 137.088Z" fill="white"/>
<path d="M75.9147 105.805L65.2065 126.9C63.3403 130.576 64.1367 135.077 67.1754 138.029L84.6115 154.965L62.9088 143.902C59.1265 141.974 54.5714 142.648 51.6466 145.567L34.864 162.316L45.5721 141.221C47.4383 137.545 46.642 133.044 43.6033 130.092L26.1672 113.156L47.8699 124.219C51.6522 126.147 56.2073 125.474 59.1321 122.555L75.9147 105.805Z" fill="white"/>
</svg>
