<svg width="229" height="286" viewBox="0 0 229 286" fill="none" xmlns="http://www.w3.org/2000/svg">
<path d="M128.551 57.5705L130.763 135.505C131.149 149.087 140.281 160.858 153.341 164.608L228.28 186.121L150.345 188.334C136.763 188.719 124.992 197.851 121.243 210.911L99.7291 285.85L97.5166 207.916C97.131 194.333 87.9993 182.563 74.9392 178.813L0 157.3L77.9347 155.087C91.5169 154.701 103.288 145.57 107.037 132.51L128.551 57.5705Z" fill="white"/>
<path d="M120.485 48.1015C155.048 12.6179 184.146 -6.35797 195.56 1.92863C208.382 11.2381 195.405 52.4184 165.756 104.278C188.468 60.317 197.011 26.5162 185.095 17.8642C175.829 11.1369 155.935 20.8804 131.198 42.0995C119.656 54.6309 108.932 66.4784 98.9062 77.8114C92.6245 80.1099 86.0227 82.9557 79.1738 86.3183C92.7522 73.347 106.681 60.4192 120.485 48.1015Z" fill="white"/>
<path d="M174.89 86.7262L166.347 108.786C164.858 112.631 166.101 117.03 169.419 119.662L188.463 134.768L165.762 125.933C161.806 124.394 157.341 125.519 154.723 128.716L139.7 147.061L148.244 125C149.733 121.156 148.49 116.757 145.171 114.124L126.128 99.0183L148.829 107.853C152.785 109.393 157.25 108.268 159.868 105.071L174.89 86.7262Z" fill="white"/>
</svg>
