<svg width="229" height="294" viewBox="0 0 229 294" fill="none" xmlns="http://www.w3.org/2000/svg">
<path d="M128.551 56.8817L130.763 134.816C131.149 148.399 140.281 160.169 153.341 163.919L228.28 185.432L150.345 187.645C136.763 188.031 124.992 197.162 121.243 210.222L99.7291 285.162L97.5166 207.227C97.131 193.645 87.9993 181.874 74.9392 178.125L0 156.611L77.9347 154.398C91.5169 154.013 103.288 144.881 107.037 131.821L128.551 56.8817Z" fill="white"/>
<path d="M89.088 219.875L75.3363 239.124C72.9397 242.479 73.0517 247.049 75.6132 250.423L90.3112 269.783L70.5137 255.59C67.0635 253.116 62.4589 253.098 59.1293 255.545L40.0239 269.587L53.7756 250.338C56.1722 246.983 56.0602 242.413 53.4986 239.039L38.8007 219.679L58.5981 233.873C62.0484 236.346 66.6529 236.364 69.9825 233.917L89.088 219.875Z" fill="white"/>
<path d="M184.905 0.680032C190.894 -0.626888 195.785 -0.0754687 199.309 2.55503C219.225 17.422 187.928 93.0312 129.405 171.433C105.614 203.305 80.9864 230.732 58.7958 251.063C77.2247 231.463 96.5244 207.745 115.144 181.212C172.454 99.5504 202.505 20.9047 184.905 0.680032Z" fill="white"/>
</svg>
