<svg width="9" height="10" viewBox="0 0 9 10" fill="none" xmlns="http://www.w3.org/2000/svg">
<path d="M5.28641 3.21429H3.71359C3.52027 3.21429 3.36408 3.37388 3.36408 3.57143V9.64286C3.36408 9.8404 3.52027 10 3.71359 10H5.28641C5.47973 10 5.63592 9.8404 5.63592 9.64286V3.57143C5.63592 3.37388 5.47973 3.21429 5.28641 3.21429ZM8.65049 0H7.07767C6.88434 0 6.72816 0.159598 6.72816 0.357143V9.64286C6.72816 9.8404 6.88434 10 7.07767 10H8.65049C8.84381 10 9 9.8404 9 9.64286V0.357143C9 0.159598 8.84381 0 8.65049 0ZM1.92233 6.42857H0.349515C0.156189 6.42857 0 6.58817 0 6.78571V9.64286C0 9.8404 0.156189 10 0.349515 10H1.92233C2.11566 10 2.27184 9.8404 2.27184 9.64286V6.78571C2.27184 6.58817 2.11566 6.42857 1.92233 6.42857Z" fill="white"/>
</svg>
