<svg width="336" height="336" viewBox="0 0 336 336" fill="none" xmlns="http://www.w3.org/2000/svg">
<path d="M93.1704 198.007H22.0142C4.89541 198.007 -5.62334 179.376 3.17666 164.663L39.5454 104.026C45.5267 94.0568 56.2517 88.0068 67.8704 88.0068H133.183C185.502 -0.611906 263.533 -5.08067 315.714 2.55058C324.514 3.85683 331.389 10.7318 332.627 19.4631C340.258 71.6443 335.789 149.676 247.17 201.994V267.307C247.17 278.926 241.12 289.651 231.152 295.632L170.514 332.001C155.87 340.801 137.17 330.213 137.17 313.163V242.007C137.17 217.738 117.439 198.007 93.1704 198.007ZM280.17 88.0068C280.17 69.7881 265.389 55.0068 247.17 55.0068C228.952 55.0068 214.17 69.7881 214.17 88.0068C214.17 106.226 228.952 121.007 247.17 121.007C265.389 121.007 280.17 106.226 280.17 88.0068Z" fill="white"/>
</svg>
