<svg width="1007" height="936" viewBox="0 0 1007 936" fill="none" xmlns="http://www.w3.org/2000/svg">
<path d="M660.696 142.863L668.379 413.486C669.718 460.649 701.427 501.522 746.777 514.542L1007 589.247L736.375 596.929C689.212 598.268 648.339 629.977 635.32 675.328L560.615 935.549L552.932 664.926C551.593 617.763 519.884 576.889 474.533 563.87L214.313 489.165L484.935 481.482C532.099 480.143 572.972 448.434 585.991 403.084L660.696 142.863Z" fill="white"/>
<path d="M289.631 547.92C280.363 561.188 271.266 574.465 262.316 587.786C155.526 746.73 116.85 877.082 281.4 926.999C-65.1242 905.929 -48.8777 829.874 101.882 645.996C125.839 616.776 165.123 572.66 214.633 519.735L289.631 547.92Z" fill="white"/>
<path d="M641.535 49.792C653.452 58.4695 669.44 58.6499 681.065 50.2383L747.766 1.97168L699.521 68.458C691.113 80.045 691.385 95.9159 700.192 107.697L750.731 175.299L682.353 125.507C670.436 116.829 654.448 116.649 642.823 125.061L625.636 137.497C519.017 254.817 433.537 355.185 359.997 451.633L275.042 456.11C368.967 358.536 485.795 243.014 602.142 137.468L624.366 106.841C632.774 95.2538 632.503 79.383 623.695 67.6016L573.157 0L641.535 49.792Z" fill="white"/>
</svg>
