<svg width="1080" height="1080" viewBox="0 0 1080 1080" fill="none" xmlns="http://www.w3.org/2000/svg">
<path d="M697.696 182.863L705.379 453.486C706.718 500.649 738.427 541.522 783.777 554.542L1044 629.247L773.375 636.929C726.212 638.268 685.339 669.977 672.32 715.328L597.615 975.549L589.932 704.926C588.593 657.763 556.884 616.889 511.533 603.87L251.313 529.165L521.935 521.482C569.099 520.143 609.972 488.434 622.991 443.084L697.696 182.863Z" fill="white"/>
<path d="M326.631 587.92C317.363 601.188 308.266 614.465 299.316 627.786C192.526 786.73 153.85 917.082 318.4 966.999C-28.1242 945.929 -11.8777 869.874 138.882 685.996C162.839 656.776 202.123 612.66 251.633 559.735L326.631 587.92Z" fill="white"/>
<path d="M678.535 89.792C690.452 98.4695 706.44 98.6499 718.065 90.2383L784.766 41.9717L736.521 108.458C728.113 120.045 728.385 135.916 737.192 147.697L787.731 215.299L719.353 165.507C707.436 156.829 691.448 156.649 679.823 165.061L662.636 177.497C556.017 294.817 470.537 395.185 396.997 491.633L312.042 496.11C405.967 398.536 522.795 283.014 639.142 177.468L661.366 146.841C669.774 135.254 669.503 119.383 660.695 107.602L610.157 40L678.535 89.792Z" fill="white"/>
</svg>
