<svg width="1378" height="1378" viewBox="0 0 1378 1378" fill="none" xmlns="http://www.w3.org/2000/svg">
<path d="M689 0C1069.52 0 1378 308.476 1378 689C1378 1069.52 1069.52 1378 689 1378C308.476 1378 0 1069.52 0 689C0 308.476 308.476 0 689 0ZM780.991 553.084C767.972 598.434 727.099 630.143 679.936 631.482L409.312 639.165L669.533 713.87C714.884 726.889 746.593 767.763 747.932 814.926L755.614 1085.55L830.319 825.328C843.339 779.978 884.212 748.269 931.375 746.93L1202 739.247L941.777 664.542C896.427 651.523 864.718 610.649 863.379 563.486L855.696 292.863L780.991 553.084ZM409.634 669.736C360.124 722.661 320.839 766.776 296.882 795.996C146.122 979.874 129.876 1055.93 476.4 1077C311.85 1027.08 350.526 896.73 457.316 737.786C466.266 724.465 475.363 711.188 484.632 697.92L409.634 669.736ZM818.695 217.602C827.503 229.383 827.774 245.254 819.366 256.841L797.141 287.47C680.794 393.015 563.967 508.537 470.042 606.11L554.997 601.633C628.538 505.184 714.019 404.816 820.64 287.494L837.823 275.061C849.448 266.649 865.436 266.829 877.353 275.507L945.73 325.299L895.192 257.697C886.385 245.916 886.113 230.045 894.521 218.458L942.766 151.972L876.064 200.238C864.44 208.65 848.452 208.47 836.535 199.792L768.157 150L818.695 217.602Z" fill="#1E1E1E"/>
</svg>
