<svg width="10" height="10" viewBox="0 0 10 10" fill="none" xmlns="http://www.w3.org/2000/svg">
<path d="M4.54629 0.137807C4.36251 -0.0459355 4.06534 -0.0459355 3.88352 0.137807L2.00664 2.01432C1.82286 2.19806 1.82286 2.49518 2.00664 2.67696L3.75448 4.42447L3.45144 4.72745C2.96854 4.50461 2.43284 4.37951 1.86783 4.37951C1.24806 4.37951 0.665448 4.53002 0.151261 4.79391C-0.0246969 4.88578 -0.050113 5.12034 0.0906531 5.25913L2.19432 7.36434L1.87369 7.68491C1.82286 7.67123 1.76812 7.66341 1.71142 7.66341C1.36537 7.66341 1.08579 7.94293 1.08579 8.28892C1.08579 8.6349 1.36537 8.91442 1.71142 8.91442C2.05747 8.91442 2.33705 8.6349 2.33705 8.28892C2.33705 8.23223 2.32923 8.17945 2.31554 8.12668L2.63617 7.8061L4.73984 9.90936C4.88061 10.0501 5.11522 10.0247 5.20515 9.84877C5.47105 9.33468 5.62159 8.75218 5.62159 8.13254C5.62159 7.56763 5.49646 7.03204 5.27358 6.55119L5.57662 6.24821L7.32251 7.99571C7.50629 8.17945 7.80346 8.17945 7.98528 7.99571L9.86217 6.1192C10.0459 5.93545 10.0459 5.63834 9.86217 5.45655L8.11432 3.70905L9.18962 2.63396C9.434 2.38962 9.434 1.99282 9.18962 1.74848L8.25118 0.810224C8.00679 0.565886 7.60991 0.565886 7.36552 0.810224L6.29023 1.88531L4.54629 0.137807ZM7.65488 6.99881L6.23939 5.58361L7.4535 4.36974L8.86898 5.7869L7.65488 7.00077V6.99881ZM4.4153 3.76182L2.99982 2.34662L4.21393 1.13275L5.62941 2.54795L4.4153 3.76182Z" fill="#919191"/>
</svg>
