<svg width="10" height="8" viewBox="0 0 10 8" fill="none" xmlns="http://www.w3.org/2000/svg">
<path d="M4.22992 5.75C4.4385 5.95833 4.7013 6.05633 5.01834 6.044C5.33538 6.03166 5.56481 5.917 5.70664 5.7L8.5099 1.5L4.30501 4.3C4.08809 4.45 3.96929 4.677 3.94859 4.981C3.9279 5.285 4.02168 5.54133 4.22992 5.75ZM1.55181 8C1.36826 8 1.1994 7.96033 1.04522 7.881C0.891037 7.80166 0.767894 7.683 0.675786 7.525C0.458867 7.13333 0.292006 6.72717 0.175204 6.3065C0.0584012 5.88583 0 5.45033 0 5C0 4.30833 0.131486 3.65833 0.394459 3.05C0.657432 2.44167 1.01401 1.9125 1.4642 1.4625C1.91439 1.0125 2.44418 0.656333 3.05355 0.394C3.66293 0.131667 4.31369 0.000333333 5.00583 0C5.68995 0 6.33237 0.129167 6.93307 0.3875C7.53377 0.645833 8.05938 0.998 8.5099 1.444C8.96043 1.89 9.31918 2.41083 9.58615 3.0065C9.85313 3.60217 9.99079 4.24167 9.99914 4.925C10.0075 5.38333 9.95542 5.83133 9.84295 6.269C9.73049 6.70667 9.55729 7.12533 9.32335 7.525C9.23158 7.68333 9.1086 7.80217 8.95442 7.8815C8.80024 7.96083 8.63104 8.00033 8.44683 8H1.55181Z" fill="#919191"/>
</svg>
