<svg width="18" height="16" viewBox="0 0 18 16" fill="none" xmlns="http://www.w3.org/2000/svg">
<path d="M6.5 0C5.56563 0 4.79062 0.640625 4.56875 1.50625C4.54375 1.50625 4.525 1.5 4.5 1.5C3.39688 1.5 2.5 2.39688 2.5 3.5C2.5 3.65 2.51875 3.79688 2.55312 3.9375C1.64062 4.3125 1 5.20625 1 6.25C1 6.64375 1.1 7.00937 1.25937 7.34062C0.509375 7.77187 0 8.57187 0 9.5C0 10.5406 0.6375 11.4344 1.54375 11.8094C1.51563 11.9531 1.5 12.1 1.5 12.25C1.5 13.4937 2.50625 14.5 3.75 14.5C3.87812 14.5 4.00312 14.4844 4.125 14.4625C4.425 15.3531 5.25625 16 6.25 16C7.49375 16 8.5 14.9937 8.5 13.75V2C8.5 0.896875 7.60312 0 6.5 0ZM18 9.5C18 8.57187 17.4906 7.77187 16.7406 7.34062C16.9031 7.00937 17 6.64375 17 6.25C17 5.20625 16.3594 4.3125 15.4469 3.9375C15.4781 3.79688 15.5 3.65 15.5 3.5C15.5 2.39688 14.6031 1.5 13.5 1.5C13.475 1.5 13.4531 1.50625 13.4312 1.50625C13.2094 0.640625 12.4344 0 11.5 0C10.3969 0 9.5 0.89375 9.5 2V13.75C9.5 14.9937 10.5063 16 11.75 16C12.7437 16 13.575 15.3531 13.875 14.4625C13.9969 14.4844 14.1219 14.5 14.25 14.5C15.4937 14.5 16.5 13.4937 16.5 12.25C16.5 12.1 16.4844 11.9531 16.4562 11.8094C17.3625 11.4344 18 10.5406 18 9.5Z" fill="white"/>
</svg>
