<svg width="309" height="238" viewBox="0 0 309 238" fill="none" xmlns="http://www.w3.org/2000/svg">
<path d="M209.269 0L211.482 77.9347C211.867 91.5169 220.999 103.288 234.059 107.037L308.998 128.551L231.063 130.763C217.481 131.149 205.71 140.281 201.961 153.341L180.447 228.28L178.235 150.345C177.849 136.763 168.717 124.992 155.657 121.243L80.7182 99.7291L158.653 97.5166C172.235 97.131 184.006 87.9993 187.755 74.9392L209.269 0Z" fill="white"/>
<path d="M68.4115 162.077L57.7033 183.172C55.8371 186.848 56.6334 191.349 59.6721 194.301L77.1083 211.236L55.4055 200.174C51.6233 198.246 47.0681 198.919 44.1433 201.838L27.3607 218.587L38.0689 197.493C39.9351 193.817 39.1388 189.315 36.1001 186.364L18.664 169.428L40.3667 180.49C44.1489 182.418 48.7041 181.745 51.6289 178.826L68.4115 162.077Z" fill="white"/>
</svg>
