<svg width="290" height="270" viewBox="0 0 290 270" fill="none" xmlns="http://www.w3.org/2000/svg">
<path d="M190.269 41.1422L192.481 119.077C192.867 132.659 201.999 144.43 215.059 148.179L289.998 169.693L212.063 171.905C198.481 172.291 186.71 181.423 182.961 194.483L161.447 269.422L159.235 191.487C158.849 177.905 149.717 166.134 136.657 162.385L61.718 140.871L139.653 138.659C153.235 138.273 165.006 129.141 168.755 116.081L190.269 41.1422Z" fill="white"/>
<path d="M83.4102 157.792C80.7411 161.613 78.1206 165.436 75.5431 169.272C44.7895 215.045 33.6516 252.582 81.0372 266.958C-18.7543 260.89 -14.0758 238.989 29.3399 186.036C36.2392 177.621 47.5525 164.916 61.8106 149.675L83.4102 157.792Z" fill="white"/>
<path d="M184.751 14.3389C188.183 16.8379 192.787 16.8902 196.135 14.4678L215.344 0.567383L201.45 19.7148C199.029 23.0516 199.106 27.6218 201.643 31.0146L216.197 50.4834L196.506 36.1436C193.074 33.6446 188.47 33.5933 185.122 36.0156L180.179 39.5918C149.472 73.3798 124.853 102.285 103.674 130.062L79.2081 131.352C106.255 103.254 139.897 69.99 173.4 39.5967L179.807 30.7686C182.228 27.4317 182.15 22.8606 179.613 19.4678L165.059 0L184.751 14.3389Z" fill="white"/>
</svg>
