<svg width="13" height="13" viewBox="0 0 13 13" fill="none" xmlns="http://www.w3.org/2000/svg">
<path d="M0.5 10C0.632608 10 0.759785 10.0527 0.853553 10.1464C0.947322 10.2402 1 10.3674 1 10.5V12H2.5C2.63261 12 2.75979 12.0527 2.85355 12.1464C2.94732 12.2402 3 12.3674 3 12.5C3 12.6326 2.94732 12.7598 2.85355 12.8536C2.75979 12.9473 2.63261 13 2.5 13H0.5C0.367392 13 0.240215 12.9473 0.146447 12.8536C0.0526785 12.7598 0 12.6326 0 12.5V10.5C0 10.3674 0.0526785 10.2402 0.146447 10.1464C0.240215 10.0527 0.367392 10 0.5 10ZM8 12C8.13261 12 8.25979 12.0527 8.35355 12.1464C8.44732 12.2402 8.5 12.3674 8.5 12.5C8.5 12.6326 8.44732 12.7598 8.35355 12.8536C8.25979 12.9473 8.13261 13 8 13H5C4.86739 13 4.74021 12.9473 4.64645 12.8536C4.55268 12.7598 4.5 12.6326 4.5 12.5C4.5 12.3674 4.55268 12.2402 4.64645 12.1464C4.74021 12.0527 4.86739 12 5 12H8ZM12.5 10C12.6326 10 12.7598 10.0527 12.8536 10.1464C12.9473 10.2402 13 10.3674 13 10.5V12.5C13 12.6326 12.9473 12.7598 12.8536 12.8536C12.7598 12.9473 12.6326 13 12.5 13H10.5C10.3674 13 10.2402 12.9473 10.1464 12.8536C10.0527 12.7598 10 12.6326 10 12.5C10 12.3674 10.0527 12.2402 10.1464 12.1464C10.2402 12.0527 10.3674 12 10.5 12H11.999L12 10.5C12 10.3674 12.0527 10.2402 12.1464 10.1464C12.2402 10.0527 12.3674 10 12.5 10ZM0.5 4.5C0.632608 4.5 0.759785 4.55268 0.853553 4.64645C0.947322 4.74022 1 4.86739 1 5V8C1 8.13261 0.947322 8.25979 0.853553 8.35355C0.759785 8.44732 0.632608 8.5 0.5 8.5C0.367392 8.5 0.240215 8.44732 0.146447 8.35355C0.0526785 8.25979 0 8.13261 0 8V5C0 4.86739 0.0526785 4.74022 0.146447 4.64645C0.240215 4.55268 0.367392 4.5 0.5 4.5ZM12.5 4.5C12.6326 4.5 12.7598 4.55268 12.8536 4.64645C12.9473 4.74022 13 4.86739 13 5V8C13 8.13261 12.9473 8.25979 12.8536 8.35355C12.7598 8.44732 12.6326 8.5 12.5 8.5C12.3674 8.5 12.2402 8.44732 12.1464 8.35355C12.0527 8.25979 12 8.13261 12 8V5C12 4.86739 12.0527 4.74022 12.1464 4.64645C12.2402 4.55268 12.3674 4.5 12.5 4.5ZM2.5 1.00009e-06C2.63261 1.00009e-06 2.75979 0.0526795 2.85355 0.146448C2.94732 0.240216 3 0.367393 3 0.500001C3 0.632609 2.94732 0.759786 2.85355 0.853554C2.75979 0.947323 2.63261 1 2.5 1H1V2.5C1 2.63261 0.947322 2.75979 0.853553 2.85355C0.759785 2.94732 0.632608 3 0.5 3C0.367392 3 0.240215 2.94732 0.146447 2.85355C0.0526785 2.75979 0 2.63261 0 2.5V0.500001C0 0.367393 0.0526785 0.240216 0.146447 0.146448C0.240215 0.0526795 0.367392 1.00009e-06 0.5 1.00009e-06H2.5ZM12.499 1.00009e-06C12.5647 -0.00013049 12.6299 0.0127054 12.6906 0.0377738C12.7514 0.0628423 12.8067 0.0996512 12.8532 0.146094C12.8997 0.192536 12.9367 0.2477 12.9618 0.308428C12.987 0.369156 13 0.434256 13 0.500001V2.5C13 2.63261 12.9473 2.75979 12.8536 2.85355C12.7598 2.94732 12.6326 3 12.5 3C12.3674 3 12.2402 2.94732 12.1464 2.85355C12.0527 2.75979 12 2.63261 12 2.5V1H10.5C10.3674 1 10.2402 0.947323 10.1464 0.853554C10.0527 0.759786 10 0.632609 10 0.500001C10 0.367393 10.0527 0.240216 10.1464 0.146448C10.2402 0.0526795 10.3674 1.00009e-06 10.5 1.00009e-06H12.499ZM7.999 1.00009e-06C8.13161 1.00009e-06 8.25879 0.0526795 8.35255 0.146448C8.44632 0.240216 8.499 0.367393 8.499 0.500001C8.499 0.632609 8.44632 0.759786 8.35255 0.853554C8.25879 0.947323 8.13161 1 7.999 1H5C4.86739 1 4.74021 0.947323 4.64645 0.853554C4.55268 0.759786 4.5 0.632609 4.5 0.500001C4.5 0.367393 4.55268 0.240216 4.64645 0.146448C4.74021 0.0526795 4.86739 1.00009e-06 5 1.00009e-06H7.999Z" fill="white"/>
</svg>
