<svg width="40" height="69" viewBox="0 0 40 69" fill="none" xmlns="http://www.w3.org/2000/svg">
<path d="M27.6201 42.4814V49H23V53.1172H30.0322C31.0629 53.1173 32.0221 53.6473 32.5713 54.5195L38.7939 64.4014C40.0515 66.399 38.6153 68.9997 36.2549 69H3.00488C0.644305 68.9997 -0.790998 66.399 0.466797 64.4014L6.68848 54.5195C7.23773 53.6473 8.19679 53.1172 9.22754 53.1172H17V49H11.373V42.4814L0 21.1914H39L27.6201 42.4814Z" fill="white"/>
<path d="M19.5 13.0449C22.2041 13.0449 24.5195 14.7039 25.5098 17.0576L22.5088 18.3105C22.0137 17.1337 20.8561 16.3086 19.5078 16.3086C18.152 16.3086 16.9943 17.1337 16.5068 18.3105L13.5059 17.0576C14.4808 14.7039 16.796 13.045 19.5 13.0449Z" fill="white"/>
<path d="M19.5 6.51855C24.9082 6.51855 29.5395 9.83561 31.4971 14.5508L28.4961 15.8037C27.0259 12.2655 23.5599 9.78223 19.5 9.78223C15.4478 9.78231 11.974 12.2654 10.5039 15.7959L7.50293 14.543C9.46052 9.8355 14.0919 6.51864 19.5 6.51855Z" fill="white"/>
<path d="M19.5 0C27.6123 -3.546e-07 34.5598 4.96737 37.5 12.0439L34.498 13.2969C32.0528 7.40506 26.2563 3.2627 19.5 3.2627C12.7361 3.26278 6.94712 7.40505 4.50195 13.2969L1.50098 12.0361C4.44123 4.96737 11.3879 8.74859e-05 19.5 0Z" fill="white"/>
</svg>
