<svg width="16" height="16" viewBox="0 0 16 16" fill="none" xmlns="http://www.w3.org/2000/svg">
<path d="M8 16C12.4184 16 16 12.4184 16 8C16 3.5816 12.4184 0 8 0C3.5816 0 0 3.5816 0 8C0 12.4184 3.5816 16 8 16ZM8 9.2C7.68174 9.2 7.37652 9.07357 7.15147 8.84853C6.92643 8.62348 6.8 8.31826 6.8 8C6.8 7.68174 6.92643 7.37652 7.15147 7.15147C7.37652 6.92643 7.68174 6.8 8 6.8C8.31826 6.8 8.62348 6.92643 8.84853 7.15147C9.07357 7.37652 9.2 7.68174 9.2 8C9.2 8.31826 9.07357 8.62348 8.84853 8.84853C8.62348 9.07357 8.31826 9.2 8 9.2ZM5.6 8C5.6 8.31826 5.47357 8.62348 5.24853 8.84853C5.02348 9.07357 4.71826 9.2 4.4 9.2C4.08174 9.2 3.77652 9.07357 3.55147 8.84853C3.32643 8.62348 3.2 8.31826 3.2 8C3.2 7.68174 3.32643 7.37652 3.55147 7.15147C3.77652 6.92643 4.08174 6.8 4.4 6.8C4.71826 6.8 5.02348 6.92643 5.24853 7.15147C5.47357 7.37652 5.6 7.68174 5.6 8ZM11.6 9.2C11.2817 9.2 10.9765 9.07357 10.7515 8.84853C10.5264 8.62348 10.4 8.31826 10.4 8C10.4 7.68174 10.5264 7.37652 10.7515 7.15147C10.9765 6.92643 11.2817 6.8 11.6 6.8C11.9183 6.8 12.2235 6.92643 12.4485 7.15147C12.6736 7.37652 12.8 7.68174 12.8 8C12.8 8.31826 12.6736 8.62348 12.4485 8.84853C12.2235 9.07357 11.9183 9.2 11.6 9.2Z" fill="#E4E4E4"/>
</svg>
