<svg width="55" height="60" viewBox="0 0 55 60" fill="none" xmlns="http://www.w3.org/2000/svg">
<path d="M27.0589 17.6475C29.0081 17.6475 30.5882 19.2275 30.5882 21.1768V44.1172H37.1673C38.1981 44.1172 39.1571 44.6472 39.7064 45.5195L45.929 55.4014C47.1868 57.3991 45.7507 60 43.39 60H10.14C7.77939 59.9997 6.34408 57.399 7.60188 55.4014L13.8236 45.5195C14.3728 44.6472 15.3318 44.1172 16.3626 44.1172H23.5296V21.1768C23.5296 19.2276 25.1098 17.6476 27.0589 17.6475Z" fill="white"/>
<path d="M27.0589 0C32.4106 2.4455e-07 37.6423 1.58729 42.0921 4.56055C46.5419 7.53381 50.0099 11.7598 52.0579 16.7041C54.1059 21.6484 54.642 27.089 53.598 32.3379C52.7557 36.5721 50.9157 40.528 48.2493 43.8857C47.1875 45.2229 45.2136 45.2133 44.0062 44.0059C42.7991 42.7985 42.8214 40.8527 43.8372 39.4805C45.6627 37.0147 46.93 34.1656 47.5335 31.1318C48.339 27.0824 47.925 22.8848 46.345 19.0703C44.765 15.2559 42.0895 11.995 38.6566 9.70117C35.2237 7.40756 31.1875 6.18359 27.0589 6.18359C22.9303 6.18366 18.8941 7.40743 15.4613 9.70117C12.0283 11.995 9.35278 15.2558 7.77278 19.0703C6.19283 22.8847 5.77981 27.0825 6.58528 31.1318C7.18881 34.1656 8.45608 37.0147 10.2816 39.4805C11.2974 40.8528 11.319 42.7985 10.1116 44.0059C8.90425 45.2132 6.93132 45.2229 5.86946 43.8857C3.20297 40.5279 1.36211 36.5722 0.519847 32.3379C-0.524203 27.0891 0.0119689 21.6484 2.05989 16.7041C4.10784 11.7599 7.57612 7.53379 12.0257 4.56055C16.4754 1.58734 21.7073 6.27237e-05 27.0589 0Z" fill="white"/>
<path d="M27.0589 9.41211C30.5492 9.41211 33.9616 10.4467 36.8636 12.3857C39.7656 14.3248 42.027 17.0811 43.3626 20.3057C44.6983 23.5302 45.0484 27.0788 44.3675 30.502C43.8752 32.9768 42.8598 35.3057 41.4027 37.3389C40.4741 38.6344 38.6235 38.6232 37.4964 37.4961C36.3696 36.369 36.4072 34.5526 37.2298 33.1875C37.9347 32.0177 38.4361 30.7286 38.7054 29.375C39.1635 27.0716 38.9283 24.6844 38.0296 22.5146C37.1309 20.3449 35.6093 18.4903 33.6566 17.1855C31.7038 15.8807 29.4075 15.1836 27.0589 15.1836C24.7104 15.1837 22.4149 15.8808 20.4622 17.1855C18.5094 18.4904 16.987 20.3448 16.0882 22.5146C15.1895 24.6843 14.9544 27.0717 15.4124 29.375C15.6817 30.7287 16.1841 32.0177 16.889 33.1875C17.7117 34.5527 17.7485 36.369 16.6214 37.4961C15.4943 38.6232 13.6437 38.6345 12.7152 37.3389C11.2581 35.3058 10.2436 32.9766 9.75129 30.502C9.07039 27.0788 9.41959 23.5302 10.7552 20.3057C12.0909 17.0811 14.3532 14.3248 17.2552 12.3857C20.1571 10.4468 23.5688 9.41218 27.0589 9.41211Z" fill="white"/>
</svg>
