<svg width="60" height="60" viewBox="0 0 60 60" fill="none" xmlns="http://www.w3.org/2000/svg">
<path fill-rule="evenodd" clip-rule="evenodd" d="M22.944 0.629545C22.745 0.429988 22.5085 0.271662 22.2482 0.163634C21.9878 0.0556063 21.7088 0 21.4269 0C21.145 0 20.8659 0.0556063 20.6056 0.163634C20.3453 0.271662 20.1088 0.429988 19.9098 0.629545C14.6767 5.86264 11.7367 12.9603 11.7367 20.361C11.7367 27.7617 14.6767 34.8593 19.9098 40.0924C25.1429 45.3255 32.2405 48.2654 39.6412 48.2654C47.0419 48.2654 54.1395 45.3255 59.3726 40.0924C59.5722 39.8933 59.7305 39.6569 59.8385 39.3965C59.9465 39.1362 60.0022 38.8571 60.0022 38.5753C60.0022 38.2934 59.9465 38.0143 59.8385 37.754C59.7305 37.4936 59.5722 37.2572 59.3726 37.0581L44.184 21.8781L50.1669 15.891C50.9476 15.0827 51.3795 14.0001 51.3698 12.8764C51.36 11.7527 50.9093 10.6778 50.1147 9.88318C49.3201 9.08857 48.2452 8.63785 47.1215 8.62808C45.9978 8.61832 44.9152 9.0503 44.1069 9.83097L38.124 15.8138L22.944 0.629545ZM11.844 38.6181C16.0755 45.0617 22.4139 49.8352 29.7755 52.1224L31.314 57.2438C31.4103 57.5639 31.4304 57.9021 31.3726 58.2313C31.3148 58.5605 31.1809 58.8716 30.9814 59.1398C30.7819 59.408 30.5224 59.6258 30.2238 59.7759C29.9251 59.9259 29.5954 60.004 29.2612 60.0038H1.66975C1.37269 60.0035 1.08108 59.9241 0.824929 59.7736C0.568783 59.6232 0.35736 59.4072 0.212427 59.1479C0.067495 58.8886 -0.00571046 58.5953 0.000347693 58.2983C0.00640585 58.0013 0.0915087 57.7113 0.246895 57.4581L11.844 38.6181Z" fill="white"/>
</svg>
