<svg width="50" height="69" viewBox="0 0 50 69" fill="none" xmlns="http://www.w3.org/2000/svg">
<path d="M47.5 44C48.8807 44 50 45.1193 50 46.5C50 47.8807 48.8807 49 47.5 49H30V53.1172H35.0312C36.062 53.1172 37.0211 53.6473 37.5703 54.5195L43.793 64.4014C45.0508 66.3991 43.6147 69 41.2539 69H8.00391C5.6436 68.9995 4.20826 66.3989 5.46582 64.4014L11.6875 54.5195C12.2367 53.6473 13.1959 53.1173 14.2266 53.1172H21V49H3.5C2.11929 49 1 47.8807 1 46.5C1 45.1193 2.11929 44 3.5 44H47.5Z" fill="white"/>
<path d="M25.001 30C27.7916 30 30.0517 32.2376 30.0518 35C30.0551 35.6533 29.9278 36.3014 29.6758 36.9062C29.4238 37.511 29.0519 38.0612 28.583 38.5254C28.1142 38.9894 27.5567 39.3583 26.9424 39.6113C26.3278 39.8644 25.6676 39.9967 25.001 40C22.2104 39.9998 19.9482 37.7599 19.9482 35C19.9449 34.3465 20.073 33.6987 20.3252 33.0938C20.5774 32.4888 20.9487 31.9379 21.418 31.4736C21.8871 31.0095 22.4449 30.6405 23.0596 30.3877C23.6744 30.1348 24.3342 30.003 25.001 30Z" fill="white"/>
<path d="M25.001 20.0039C26.9945 20.0039 28.9684 20.3927 30.8076 21.1465C32.6468 21.9002 34.3148 23.0047 35.7148 24.3955L32.1465 27.9297C31.2131 27.0021 30.1003 26.2655 28.874 25.7627C27.6479 25.2601 26.332 25.001 25.0029 25.001C23.6737 25.001 22.3572 25.26 21.1309 25.7627C19.9045 26.2655 18.7918 27.002 17.8584 27.9297L14.2871 24.3955C15.6872 23.0047 17.3561 21.9002 19.1953 21.1465C21.0343 20.3928 23.0077 20.0039 25.001 20.0039Z" fill="white"/>
<path d="M25.001 9.99902C28.3238 9.99902 31.6143 10.6464 34.6797 11.9033C37.7449 13.1602 40.5247 15.0014 42.8574 17.3203L39.2842 20.8555C37.4179 19.0006 35.1933 17.5277 32.7412 16.5225C30.2892 15.5172 27.6579 14.999 25 14.999C22.3421 14.999 19.7108 15.5172 17.2588 16.5225C14.8067 17.5277 12.5821 19.0006 10.7158 20.8555L7.14551 17.3203C9.47832 15.0014 12.258 13.1602 15.3232 11.9033C18.3886 10.6465 21.6782 9.99906 25.001 9.99902Z" fill="white"/>
<path d="M25 0C29.6522 9.57729e-08 34.258 0.906336 38.5498 2.66602C42.8415 4.42567 46.7338 7.0034 50 10.25L46.4287 13.7852C43.629 11.0023 40.2929 8.79247 36.6143 7.28418C32.9356 5.77588 28.9876 4.99902 25 4.99902C21.0124 4.99902 17.0644 5.77588 13.3857 7.28418C9.70708 8.79247 6.37097 11.0023 3.57129 13.7852L0 10.25C3.26623 7.0034 7.1585 4.42567 11.4502 2.66602C15.742 0.906335 20.3478 0 25 0Z" fill="white"/>
</svg>
</svg>
