<svg width="17" height="21" viewBox="0 0 17 21" fill="none" xmlns="http://www.w3.org/2000/svg">
<path d="M14.6114 12.5973C15.2451 12.5978 15.8526 12.847 16.3005 13.2901C16.7484 13.7332 17 14.3339 17 14.9602V15.9243C17 16.5261 16.8098 17.1128 16.456 17.6026C14.8132 19.8752 12.1313 21 8.49734 21C4.86124 21 2.18039 19.8742 0.541909 17.6015C0.189271 17.1121 -0.000160292 16.5262 1.01772e-07 15.9254V14.9592C0.000281686 14.3329 0.252145 13.7323 0.700241 13.2894C1.14834 12.8465 1.75601 12.5975 2.38971 12.5973H14.6114ZM8.49628 0C9.19397 -1.02755e-08 9.88483 0.135822 10.5294 0.399712C11.174 0.663602 11.7597 1.05039 12.253 1.538C12.7464 2.0256 13.1377 2.60447 13.4047 3.24156C13.6717 3.87865 13.8091 4.56147 13.8091 5.25105C13.8091 5.94063 13.6717 6.62345 13.4047 7.26054C13.1377 7.89763 12.7464 8.4765 12.253 8.9641C11.7597 9.45171 11.174 9.8385 10.5294 10.1024C9.88483 10.3663 9.19397 10.5021 8.49628 10.5021C7.08723 10.5021 5.73589 9.94887 4.73954 8.9641C3.74319 7.97934 3.18345 6.64372 3.18345 5.25105C3.18345 3.85839 3.74319 2.52276 4.73954 1.538C5.73589 0.553234 7.08723 0 8.49628 0Z" fill="#252525"/>
</svg>
