<svg width="24" height="24" viewBox="0 0 24 24" fill="none" xmlns="http://www.w3.org/2000/svg">
<path d="M6.54496 8.163C6.43871 8.13489 6.33993 8.08378 6.25563 8.01327C6.17132 7.94277 6.10353 7.8546 6.05707 7.755C6.01061 7.6554 5.98661 7.5468 5.98676 7.4369C5.98691 7.327 6.01122 7.21847 6.05796 7.119L7.71796 3.584C7.77842 3.45455 7.8746 3.34506 7.99518 3.26842C8.11576 3.19178 8.25572 3.15117 8.39859 3.15138C8.54147 3.15159 8.68131 3.19261 8.80166 3.2696C8.92202 3.3466 9.01787 3.45637 9.07796 3.586L9.80996 5.155L9.88996 5.128C11.617 4.66547 13.4481 4.78366 15.1014 5.46436C16.7546 6.14506 18.1381 7.3505 19.0387 8.89494C19.9394 10.4394 20.3072 12.2371 20.0855 14.0112C19.8638 15.7853 19.0648 17.4372 17.8118 18.7125C16.5588 19.9878 14.9211 20.8157 13.1512 21.0686C11.3814 21.3215 9.57741 20.9854 8.01735 20.1121C6.45729 19.2387 5.22768 17.8767 4.51799 16.2357C3.8083 14.5947 3.65789 12.7659 4.08996 11.031C4.11386 10.9354 4.15635 10.8454 4.21502 10.7663C4.27369 10.6871 4.34737 10.6202 4.43187 10.5695C4.51638 10.5188 4.61004 10.4853 4.70751 10.4708C4.80498 10.4563 4.90435 10.4611 4.99996 10.485C5.09556 10.5089 5.18552 10.5514 5.26469 10.6101C5.34387 10.6687 5.41072 10.7424 5.46142 10.8269C5.51212 10.9114 5.54568 11.0051 5.56019 11.1026C5.57469 11.2 5.56986 11.2994 5.54596 11.395C5.19557 12.8031 5.31539 14.2872 5.88712 15.6209C6.45886 16.9546 7.45113 18.0647 8.7126 18.7818C9.97407 19.499 11.4355 19.7838 12.8739 19.593C14.3124 19.4021 15.649 18.7459 16.6797 17.7246C17.7105 16.7033 18.3789 15.3728 18.5831 13.9362C18.7872 12.4996 18.5158 11.0356 17.8103 9.76756C17.1048 8.49954 16.0039 7.49708 14.6755 6.91308C13.3472 6.32908 11.8643 6.1956 10.453 6.533L11.193 8.116C11.2535 8.24528 11.276 8.38917 11.2576 8.53076C11.2392 8.67235 11.1808 8.80574 11.0892 8.91528C10.9976 9.02481 10.8767 9.10593 10.7406 9.14911C10.6045 9.19228 10.4589 9.19571 10.321 9.159L6.54496 8.163Z" fill="black"/>
</svg>
