<svg width="17" height="10" viewBox="0 0 17 10" fill="none" xmlns="http://www.w3.org/2000/svg">
<path d="M8.5 3C7.88518 3 7.29554 3.21071 6.8608 3.58579C6.42605 3.96086 6.18182 4.46957 6.18182 5C6.18182 5.53043 6.42605 6.03914 6.8608 6.41421C7.29554 6.78929 7.88518 7 8.5 7C9.11482 7 9.70446 6.78929 10.1392 6.41421C10.5739 6.03914 10.8182 5.53043 10.8182 5C10.8182 4.46957 10.5739 3.96086 10.1392 3.58579C9.70446 3.21071 9.11482 3 8.5 3ZM8.5 8.33333C7.4753 8.33333 6.49257 7.98214 5.768 7.35702C5.04342 6.7319 4.63636 5.88406 4.63636 5C4.63636 4.11595 5.04342 3.2681 5.768 2.64298C6.49257 2.01786 7.4753 1.66667 8.5 1.66667C9.5247 1.66667 10.5074 2.01786 11.232 2.64298C11.9566 3.2681 12.3636 4.11595 12.3636 5C12.3636 5.88406 11.9566 6.7319 11.232 7.35702C10.5074 7.98214 9.5247 8.33333 8.5 8.33333ZM8.5 0C4.63636 0 1.33682 2.07333 0 5C1.33682 7.92667 4.63636 10 8.5 10C12.3636 10 15.6632 7.92667 17 5C15.6632 2.07333 12.3636 0 8.5 0Z" fill="white"/>
</svg>
