<svg width="15" height="15" viewBox="0 0 15 15" fill="none" xmlns="http://www.w3.org/2000/svg">
<path d="M0.75 0H14.25C14.4489 0 14.6397 0.0877973 14.7803 0.244078C14.921 0.400358 15 0.61232 15 0.833333V14.1667C15 14.3877 14.921 14.5996 14.7803 14.7559C14.6397 14.9122 14.4489 15 14.25 15H0.75C0.551088 15 0.360322 14.9122 0.21967 14.7559C0.0790176 14.5996 0 14.3877 0 14.1667V0.833333C0 0.61232 0.0790176 0.400358 0.21967 0.244078C0.360322 0.0877973 0.551088 0 0.75 0ZM13.5 5.83333H1.5V13.3333H13.5V5.83333ZM9.75 2.5V4.16667H12.75V2.5H9.75Z" fill="#E4E4E4"/>
</svg>
