<svg width="46" height="59" viewBox="0 0 46 59" fill="none" xmlns="http://www.w3.org/2000/svg">
<path d="M43 0C44.6569 0 46 1.34315 46 3V31.2354C46 32.8922 44.6568 34.2354 43 34.2354C41.3432 34.2354 40 32.8922 40 31.2354V20.1172H36V29.4707C35.9999 31.1275 34.6568 32.4707 33 32.4707C31.3432 32.4707 30.0001 31.1275 30 29.4707V20.1172H26V43.1172H33.0312C34.062 43.1172 35.0211 43.6473 35.5703 44.5195L41.793 54.4014C43.0508 56.3991 41.6147 59 39.2539 59H6.00391C3.6436 58.9995 2.20826 56.3989 3.46582 54.4014L9.6875 44.5195C10.2367 43.6473 11.1959 43.1173 12.2266 43.1172H20V20.1172H16V25.9414C15.9999 27.5982 14.6568 28.9414 13 28.9414C11.3432 28.9414 10.0001 27.5982 10 25.9414V20.1172H6V24.1768C5.99985 25.8335 4.65676 27.1768 3 27.1768C1.34324 27.1768 0.00015461 25.8335 0 24.1768V10.0586C0.000124206 8.40185 1.34322 7.05859 3 7.05859C4.65678 7.05859 5.99988 8.40185 6 10.0586V14.1172H10V8.29395C10.0001 6.63717 11.3432 5.29395 13 5.29395C14.6568 5.29395 15.9999 6.63717 16 8.29395V14.1172H20V6.5293C20.0001 4.8725 21.3432 3.5293 23 3.5293C24.6568 3.5293 25.9999 4.8725 26 6.5293V14.1172H30V4.76465C30 3.10782 31.3432 1.76465 33 1.76465C34.6568 1.76465 36 3.10782 36 4.76465V14.1172H40V3C40 1.34315 41.3431 0 43 0Z" fill="white"/>
</svg>
